<svg width="349" height="55" viewBox="0 0 349 55" version="1.1" xmlns="http://www.w3.org/2000/svg" xmlns:xlink="http://www.w3.org/1999/xlink">
<title>Group</title>
<desc>Created using Figma</desc>
<g id="Canvas" transform="translate(44 153)">
<g id="Group">
<g id="bootstrap.build">
<use xlink:href="#path0_fill" transform="translate(23 -158)" fill="#0D76D6"/>
</g>
<g id="layers">
<g id="Group">
<g id="Vector">
<use xlink:href="#path1_fill" transform="translate(0.0209999 -128.85)" fill="#0D76D6"/>
</g>
<g id="Vector">
<use xlink:href="#path1_fill" transform="translate(-35.979 -128.85)" fill="#0D76D6"/>
</g>
<g id="Vector">
<use xlink:href="#path1_fill" transform="translate(-32.979 -125.85)" fill="#0D76D6"/>
</g>
<g id="Vector">
<use xlink:href="#path1_fill" transform="translate(-26.979 -125.85)" fill="#0D76D6"/>
</g>
<g id="Vector">
<use xlink:href="#path2_fill" transform="translate(-29.979 -122.85)" fill="#0D76D6"/>
</g>
<g id="Vector">
<use xlink:href="#path2_fill" transform="translate(-23.979 -122.85)" fill="#0D76D6"/>
</g>
<g id="Vector">
<use xlink:href="#path3_fill" transform="translate(-20.979 -119.85)" fill="#0D76D6"/>
</g>
<g id="Vector">
<use xlink:href="#path3_fill" transform="translate(-14.979 -119.85)" fill="#0D76D6"/>
</g>
<g id="Vector">
<use xlink:href="#path2_fill" transform="translate(-11.979 -122.85)" fill="#0D76D6"/>
</g>
<g id="Vector">
<use xlink:href="#path3_fill" transform="translate(-17.979 -116.85)" fill="#0D76D6"/>
</g>
<g id="Vector">
<use xlink:href="#path1_fill" transform="translate(-8.979 -125.85)" fill="#0D76D6"/>
</g>
<g id="Vector">
<use xlink:href="#path1_fill" transform="translate(-2.979 -125.85)" fill="#0D76D6"/>
</g>
<g id="Vector">
<use xlink:href="#path2_fill" transform="translate(-5.979 -122.85)" fill="#0D76D6"/>
</g>
<g id="Vector">
<use xlink:href="#path4_fill" transform="translate(-44 -153)" fill="#0D76D6"/>
</g>
</g>
</g>
</g>
</g>
<defs>
<path id="path0_fill" d="M 21.4922 39.4297C 21.4922 42.7891 20.7656 45.4766 19.3125 47.4922C 17.8594 49.4922 15.8125 50.4922 13.1719 50.4922C 11.8438 50.4922 10.6797 50.2031 9.67969 49.625C 8.69531 49.0312 7.86719 48.1641 7.19531 47.0234L 6.84375 50L 2.71875 50L 2.71875 13.4375L 7.47656 13.4375L 7.47656 27.3125C 8.13281 26.2969 8.92969 25.5234 9.86719 24.9922C 10.8047 24.4453 11.8906 24.1719 13.125 24.1719C 15.7969 24.1719 17.8594 25.25 19.3125 27.4062C 20.7656 29.5469 21.4922 32.4062 21.4922 35.9844L 21.4922 39.4297ZM 16.7578 35.9844C 16.7578 33.5469 16.3672 31.5859 15.5859 30.1016C 14.8203 28.6172 13.6016 27.875 11.9297 27.875C 10.8672 27.875 9.96094 28.1953 9.21094 28.8359C 8.47656 29.4609 7.89844 30.3047 7.47656 31.3672L 7.47656 43.5547C 7.89844 44.5859 8.48438 45.3906 9.23438 45.9688C 9.98438 46.5312 10.8984 46.8125 11.9766 46.8125C 13.6484 46.8125 14.8594 46.1484 15.6094 44.8203C 16.375 43.4922 16.7578 41.6953 16.7578 39.4297L 16.7578 35.9844ZM 25.125 35.7266C 25.125 32.3672 26 29.6016 27.75 27.4297C 29.5156 25.2578 31.9297 24.1719 34.9922 24.1719C 38.0391 24.1719 40.4453 25.2578 42.2109 27.4297C 43.9766 29.5859 44.8594 32.3516 44.8594 35.7266L 44.8594 38.9609C 44.8594 42.3516 43.9766 45.125 42.2109 47.2812C 40.4609 49.4219 38.0625 50.4922 35.0156 50.4922C 31.9375 50.4922 29.5156 49.4219 27.75 47.2812C 26 45.125 25.125 42.3516 25.125 38.9609L 25.125 35.7266ZM 29.8828 38.9609C 29.8828 41.2734 30.3047 43.1719 31.1484 44.6562C 31.9922 46.1406 33.2812 46.8828 35.0156 46.8828C 36.7031 46.8828 37.9688 46.1406 38.8125 44.6562C 39.6719 43.1719 40.1016 41.2734 40.1016 38.9609L 40.1016 35.7266C 40.1016 33.4453 39.6719 31.5625 38.8125 30.0781C 37.9688 28.5781 36.6953 27.8281 34.9922 27.8281C 33.2734 27.8281 31.9922 28.5703 31.1484 30.0547C 30.3047 31.5391 29.8828 33.4297 29.8828 35.7266L 29.8828 38.9609ZM 48.4688 35.7266C 48.4688 32.3672 49.3438 29.6016 51.0938 27.4297C 52.8594 25.2578 55.2734 24.1719 58.3359 24.1719C 61.3828 24.1719 63.7891 25.2578 65.5547 27.4297C 67.3203 29.5859 68.2031 32.3516 68.2031 35.7266L 68.2031 38.9609C 68.2031 42.3516 67.3203 45.125 65.5547 47.2812C 63.8047 49.4219 61.4062 50.4922 58.3594 50.4922C 55.2812 50.4922 52.8594 49.4219 51.0938 47.2812C 49.3438 45.125 48.4688 42.3516 48.4688 38.9609L 48.4688 35.7266ZM 53.2266 38.9609C 53.2266 41.2734 53.6484 43.1719 54.4922 44.6562C 55.3359 46.1406 56.625 46.8828 58.3594 46.8828C 60.0469 46.8828 61.3125 46.1406 62.1562 44.6562C 63.0156 43.1719 63.4453 41.2734 63.4453 38.9609L 63.4453 35.7266C 63.4453 33.4453 63.0156 31.5625 62.1562 30.0781C 61.3125 28.5781 60.0391 27.8281 58.3359 27.8281C 56.6172 27.8281 55.3359 28.5703 54.4922 30.0547C 53.6484 31.5391 53.2266 33.4297 53.2266 35.7266L 53.2266 38.9609ZM 78.8203 18.3359L 78.8203 24.6406L 82.7812 24.6406L 82.7812 28.0391L 78.8203 28.0391L 78.8203 43.1328C 78.8203 44.4453 79.0156 45.3828 79.4062 45.9453C 79.7969 46.4922 80.3047 46.7656 80.9297 46.7656C 81.3047 46.7656 81.6484 46.7422 81.9609 46.6953C 82.2891 46.6484 82.6719 46.5781 83.1094 46.4844L 83.6016 49.7656C 83.0703 49.9844 82.4688 50.1562 81.7969 50.2812C 81.1406 50.4219 80.4609 50.4922 79.7578 50.4922C 77.9609 50.4922 76.5625 49.9062 75.5625 48.7344C 74.5781 47.5469 74.0859 45.6797 74.0859 43.1328L 74.0859 28.0391L 70.7812 28.0391L 70.7812 24.6406L 74.0859 24.6406L 74.0859 18.3359L 78.8203 18.3359ZM 99.2812 43.6484C 99.2812 42.6641 98.9531 41.8359 98.2969 41.1641C 97.6562 40.4766 96.4375 39.7266 94.6406 38.9141C 92.0312 37.8984 90.0938 36.8203 88.8281 35.6797C 87.5781 34.5234 86.9531 33.0312 86.9531 31.2031C 86.9531 29.25 87.7188 27.5938 89.25 26.2344C 90.7969 24.8594 92.8203 24.1719 95.3203 24.1719C 97.9297 24.1719 100.008 24.9141 101.555 26.3984C 103.102 27.8672 103.844 29.7031 103.781 31.9062L 103.734 32.0469L 99.1641 32.0469C 99.1641 30.8438 98.8203 29.8125 98.1328 28.9531C 97.4609 28.0781 96.5234 27.6406 95.3203 27.6406C 94.1328 27.6406 93.2031 27.9766 92.5312 28.6484C 91.875 29.3203 91.5469 30.1094 91.5469 31.0156C 91.5469 31.9844 91.8281 32.75 92.3906 33.3125C 92.9688 33.875 94.2031 34.6094 96.0938 35.5156C 98.75 36.4688 100.719 37.5547 102 38.7734C 103.297 39.9766 103.945 41.5234 103.945 43.4141C 103.945 45.5078 103.148 47.2109 101.555 48.5234C 99.9609 49.8359 97.8672 50.4922 95.2734 50.4922C 92.4766 50.4922 90.2734 49.7031 88.6641 48.125C 87.0547 46.5312 86.2891 44.6719 86.3672 42.5469L 86.4141 42.4062L 90.8438 42.4062C 90.9062 44.0469 91.3594 45.2344 92.2031 45.9688C 93.0469 46.6875 94.0938 47.0469 95.3438 47.0469C 96.5781 47.0469 97.5391 46.7344 98.2266 46.1094C 98.9297 45.4688 99.2812 44.6484 99.2812 43.6484ZM 114.445 18.3359L 114.445 24.6406L 118.406 24.6406L 118.406 28.0391L 114.445 28.0391L 114.445 43.1328C 114.445 44.4453 114.641 45.3828 115.031 45.9453C 115.422 46.4922 115.93 46.7656 116.555 46.7656C 116.93 46.7656 117.273 46.7422 117.586 46.6953C 117.914 46.6484 118.297 46.5781 118.734 46.4844L 119.227 49.7656C 118.695 49.9844 118.094 50.1562 117.422 50.2812C 116.766 50.4219 116.086 50.4922 115.383 50.4922C 113.586 50.4922 112.188 49.9062 111.188 48.7344C 110.203 47.5469 109.711 45.6797 109.711 43.1328L 109.711 28.0391L 106.406 28.0391L 106.406 24.6406L 109.711 24.6406L 109.711 18.3359L 114.445 18.3359ZM 134.016 28.6484L 131.789 28.5312C 130.805 28.5312 129.984 28.8281 129.328 29.4219C 128.688 30.0156 128.195 30.8516 127.852 31.9297L 127.852 50L 123.094 50L 123.094 24.6406L 127.43 24.6406L 127.781 28.4609C 128.312 27.1172 129.008 26.0703 129.867 25.3203C 130.727 24.5547 131.719 24.1719 132.844 24.1719C 133.156 24.1719 133.477 24.2031 133.805 24.2656C 134.133 24.3125 134.391 24.375 134.578 24.4531L 134.016 28.6484ZM 150.867 50C 150.695 49.4219 150.555 48.8594 150.445 48.3125C 150.336 47.75 150.266 47.1875 150.234 46.625C 149.531 47.7656 148.648 48.6953 147.586 49.4141C 146.523 50.1328 145.344 50.4922 144.047 50.4922C 141.906 50.4922 140.227 49.8203 139.008 48.4766C 137.805 47.1172 137.203 45.3047 137.203 43.0391C 137.203 40.6172 138.023 38.7188 139.664 37.3438C 141.32 35.9531 143.641 35.2578 146.625 35.2578L 150.164 35.2578L 150.164 32.6562C 150.164 31.1094 149.82 29.9062 149.133 29.0469C 148.445 28.1719 147.469 27.7344 146.203 27.7344C 145.062 27.7344 144.141 28.125 143.438 28.9062C 142.75 29.6875 142.406 30.6641 142.406 31.8359L 137.883 31.8125L 137.812 31.6719C 137.734 29.7188 138.516 27.9844 140.156 26.4688C 141.797 24.9375 143.914 24.1719 146.508 24.1719C 149.008 24.1719 151.031 24.9141 152.578 26.3984C 154.141 27.8672 154.922 29.9688 154.922 32.7031L 154.922 44.4688C 154.922 45.4531 154.977 46.4062 155.086 47.3281C 155.211 48.2344 155.406 49.125 155.672 50L 150.867 50ZM 145.125 46.8359C 146.234 46.8359 147.242 46.5078 148.148 45.8516C 149.07 45.1953 149.742 44.375 150.164 43.3906L 150.164 38.2109L 146.555 38.2109C 145.102 38.2109 143.969 38.6797 143.156 39.6172C 142.359 40.5391 141.961 41.6719 141.961 43.0156C 141.961 44.1562 142.234 45.0781 142.781 45.7812C 143.328 46.4844 144.109 46.8359 145.125 46.8359ZM 179.109 39.4297C 179.109 42.7734 178.375 45.4531 176.906 47.4688C 175.438 49.4844 173.398 50.4922 170.789 50.4922C 169.555 50.4922 168.469 50.25 167.531 49.7656C 166.594 49.2812 165.789 48.5703 165.117 47.6328L 165.117 59.75L 160.359 59.75L 160.359 24.6406L 164.602 24.6406L 164.906 27.5469C 165.578 26.4688 166.398 25.6406 167.367 25.0625C 168.336 24.4688 169.461 24.1719 170.742 24.1719C 173.383 24.1719 175.438 25.2812 176.906 27.5C 178.375 29.7188 179.109 32.6562 179.109 36.3125L 179.109 39.4297ZM 174.352 36.3125C 174.352 33.8281 173.938 31.8047 173.109 30.2422C 172.297 28.6641 171.078 27.875 169.453 27.875C 168.438 27.875 167.57 28.1641 166.852 28.7422C 166.133 29.3203 165.555 30.1094 165.117 31.1094L 165.117 43.9297C 165.539 44.8828 166.109 45.6172 166.828 46.1328C 167.547 46.6328 168.43 46.8828 169.477 46.8828C 171.117 46.8828 172.336 46.2031 173.133 44.8438C 173.945 43.4688 174.352 41.6641 174.352 39.4297L 174.352 36.3125ZM 188.977 50L 184.195 50L 184.195 45.2422L 188.977 45.2422L 188.977 50ZM 214.148 39.4297C 214.148 42.7891 213.422 45.4766 211.969 47.4922C 210.516 49.4922 208.469 50.4922 205.828 50.4922C 204.5 50.4922 203.336 50.2031 202.336 49.625C 201.352 49.0312 200.523 48.1641 199.852 47.0234L 199.5 50L 195.375 50L 195.375 13.4375L 200.133 13.4375L 200.133 27.3125C 200.789 26.2969 201.586 25.5234 202.523 24.9922C 203.461 24.4453 204.547 24.1719 205.781 24.1719C 208.453 24.1719 210.516 25.25 211.969 27.4062C 213.422 29.5469 214.148 32.4062 214.148 35.9844L 214.148 39.4297ZM 209.414 35.9844C 209.414 33.5469 209.023 31.5859 208.242 30.1016C 207.477 28.6172 206.258 27.875 204.586 27.875C 203.523 27.875 202.617 28.1953 201.867 28.8359C 201.133 29.4609 200.555 30.3047 200.133 31.3672L 200.133 43.5547C 200.555 44.5859 201.141 45.3906 201.891 45.9688C 202.641 46.5312 203.555 46.8125 204.633 46.8125C 206.305 46.8125 207.516 46.1484 208.266 44.8203C 209.031 43.4922 209.414 41.6953 209.414 39.4297L 209.414 35.9844ZM 232.102 46.6016C 231.43 47.8516 230.57 48.8125 229.523 49.4844C 228.477 50.1562 227.273 50.4922 225.914 50.4922C 223.617 50.4922 221.828 49.6094 220.547 47.8438C 219.266 46.0781 218.625 43.3359 218.625 39.6172L 218.625 24.6406L 223.359 24.6406L 223.359 39.6641C 223.359 42.2578 223.664 44.1016 224.273 45.1953C 224.898 46.2734 225.828 46.8125 227.062 46.8125C 228.234 46.8125 229.211 46.5391 229.992 45.9922C 230.789 45.4453 231.422 44.6641 231.891 43.6484L 231.891 24.6406L 236.648 24.6406L 236.648 50L 232.406 50L 232.102 46.6016ZM 247.125 50L 242.367 50L 242.367 24.6406L 247.125 24.6406L 247.125 50ZM 247.125 17.9844L 242.367 17.9844L 242.367 13.4375L 247.125 13.4375L 247.125 17.9844ZM 257.953 50L 253.195 50L 253.195 13.4375L 257.953 13.4375L 257.953 50ZM 262.828 37.625C 262.828 33.5781 263.555 30.3281 265.008 27.875C 266.477 25.4062 268.539 24.1719 271.195 24.1719C 272.383 24.1719 273.438 24.4375 274.359 24.9688C 275.297 25.5 276.102 26.2656 276.773 27.2656L 276.773 13.4375L 281.508 13.4375L 281.508 50L 277.359 50L 277.008 47.0938C 276.336 48.2031 275.508 49.0469 274.523 49.625C 273.555 50.2031 272.438 50.4922 271.172 50.4922C 268.531 50.4922 266.477 49.3672 265.008 47.1172C 263.555 44.8672 262.828 41.8672 262.828 38.1172L 262.828 37.625ZM 267.586 38.1172C 267.586 40.7891 267.969 42.9062 268.734 44.4688C 269.5 46.0312 270.711 46.8125 272.367 46.8125C 273.398 46.8125 274.273 46.5312 274.992 45.9688C 275.727 45.4062 276.32 44.6172 276.773 43.6016L 276.773 31.2734C 276.32 30.2266 275.727 29.3984 274.992 28.7891C 274.273 28.1797 273.414 27.875 272.414 27.875C 270.758 27.875 269.539 28.7734 268.758 30.5703C 267.977 32.3672 267.586 34.7188 267.586 37.625L 267.586 38.1172Z"/>
<path id="path1_fill" d="M 1 2C 1.55228 2 2 1.55228 2 1C 2 0.447715 1.55228 0 1 0C 0.447715 0 0 0.447715 0 1C 0 1.55228 0.447715 2 1 2Z"/>
<path id="path2_fill" d="M 1 2C 1.55228 2 2 1.55228 2 1C 2 0.447715 1.55228 0 1 0C 0.447715 0 0 0.447715 0 1C 0 1.55228 0.447715 2 1 2Z"/>
<path id="path3_fill" d="M 1 2C 1.55228 2 2 1.55229 2 1C 2 0.447717 1.55228 0 1 0C 0.447715 0 0 0.447717 0 1C 0 1.55229 0.447715 2 1 2Z"/>
<path id="path4_fill" d="M 45.559 31.97L 54.953 26.603L 45.297 21.12L 54.953 15.603L 27.477 -2.47955e-08L 0 15.603L 9.656 21.12L 0 26.603L 9.656 32.12L 0 37.603L 27.477 53.301L 54.954 37.603L 45.298 32.12L 45.369 32.079C 45.439 32.053 45.497 32.011 45.559 31.97ZM 27.477 2.299L 50.913 15.608L 43.276 19.972L 27.478 28.998L 4.041 15.608L 27.477 2.299ZM 11.129 22.583C 11.291 22.916 11.626 23.15 12.021 23.15C 12.291 23.15 12.533 23.041 12.713 22.867L 14.975 24.159C 14.445 24.184 14.021 24.614 14.021 25.15C 14.021 25.702 14.469 26.15 15.021 26.15C 15.573 26.15 16.021 25.702 16.021 25.15C 16.021 24.977 15.966 24.823 15.889 24.681L 26.219 30.583C 26.103 30.746 26.021 30.935 26.021 31.15C 26.021 31.702 26.469 32.15 27.021 32.15C 27.573 32.15 28.021 31.702 28.021 31.15C 28.021 31.099 28 31.056 27.992 31.007L 38.044 25.264C 38.103 25.76 38.509 26.149 39.021 26.149C 39.573 26.149 40.021 25.701 40.021 25.149C 40.021 24.824 39.856 24.548 39.615 24.366L 41.817 23.108C 41.885 23.123 41.949 23.149 42.021 23.149C 42.465 23.149 42.828 22.855 42.959 22.455L 43.279 22.272L 50.913 26.607L 48.93 27.74C 48.773 27.393 48.427 27.149 48.022 27.149C 47.47 27.149 47.022 27.597 47.022 28.149C 47.022 28.365 47.105 28.554 47.221 28.717L 43.276 30.971L 36.888 34.621C 36.966 34.479 37.022 34.323 37.022 34.149C 37.022 33.597 36.574 33.149 36.022 33.149C 35.47 33.149 35.022 33.597 35.022 34.149C 35.022 34.686 35.448 35.116 35.979 35.14L 33.716 36.433C 33.536 36.259 33.293 36.149 33.022 36.149C 32.47 36.149 32.022 36.597 32.022 37.149C 32.022 37.229 32.05 37.3 32.068 37.375L 27.478 39.997L 21.961 36.845C 21.831 36.444 21.467 36.149 21.022 36.149C 20.949 36.149 20.884 36.176 20.816 36.191L 18.615 34.934C 18.856 34.751 19.022 34.476 19.022 34.15C 19.022 33.598 18.574 33.15 18.022 33.15C 17.51 33.15 17.103 33.541 17.045 34.037L 6.991 28.294C 6.998 28.245 7.02 28.201 7.02 28.15C 7.02 27.598 6.572 27.15 6.02 27.15C 5.781 27.15 5.571 27.245 5.399 27.385L 4.04 26.609L 11.129 22.583ZM 50.912 37.608L 27.476 50.998L 4.041 37.608L 11.674 33.273L 27.477 42.301L 43.279 33.273L 50.912 37.608Z"/>
</defs>
</svg>
