<?xml version="1.0" encoding="UTF-8"?>
<svg width="1411px" height="242px" viewBox="0 0 1411 242" version="1.1" xmlns="http://www.w3.org/2000/svg" xmlns:xlink="http://www.w3.org/1999/xlink">
    <!-- Generator: Sketch 43.1 (39012) - http://www.bohemiancoding.com/sketch -->
    <title>Group 6</title>
    <desc>Created with Sketch.</desc>
    <defs>
        <linearGradient x1="50%" y1="0%" x2="50%" y2="100%" id="linearGradient-1">
            <stop stop-color="#FF5CB9" offset="0%"></stop>
            <stop stop-color="#8125A7" offset="100%"></stop>
        </linearGradient>
    </defs>
    <g id="Page-1" stroke="none" stroke-width="1" fill="none" fill-rule="evenodd">
        <g id="Group-6">
            <circle id="Oval-2" fill="url(#linearGradient-1)" cx="121" cy="121" r="121"></circle>
            <g id="settings-work-tool" transform="translate(49.000000, 49.000000)" fill-rule="nonzero" fill="#FFFFFF">
                <path d="M143.472118,63.9717929 C143.244529,61.9486604 140.885636,60.4283657 138.845903,60.4283657 C132.251177,60.4283657 126.399193,56.5561393 123.944981,50.5676028 C121.437753,44.4339448 123.054438,37.2806881 127.96929,32.7722834 C129.51636,31.3580185 129.704322,28.9905572 128.406796,27.3460257 C125.031517,23.0598551 121.19517,19.1881642 117.006461,15.8326988 C115.366213,14.516431 112.95966,14.6995732 111.537363,16.2744892 C107.247979,21.0249415 99.5431535,22.7904968 93.5894247,20.3062957 C87.3936484,17.6999997 83.4866142,11.4217558 83.8689638,4.68244328 C83.9948071,2.56559764 82.4477373,0.725071844 80.3373177,0.479275702 C74.9619328,-0.142443952 69.5394236,-0.16172208 64.1479736,0.436435416 C62.0616516,0.666701954 60.5145818,2.46385196 60.5847327,4.55392242 C60.8192833,11.2268325 56.8651249,17.3952982 50.7309314,19.907881 C44.8484246,22.3106856 37.197685,20.5601244 32.9168694,15.8519769 C31.502069,14.3011585 29.1346076,14.1105193 27.4863276,15.3951924 C23.1733818,18.7790395 19.2508181,22.6539433 15.8444799,26.9047707 C14.5158955,28.5573348 14.7113543,30.9526423 16.2739537,32.3744043 C21.2825187,36.9101196 22.8997395,44.1254948 20.2977276,50.3298392 C17.8135265,56.2450118 11.6713005,60.0572617 4.639603,60.0572617 C2.35782225,59.9838977 0.732568894,61.515438 0.483024227,63.5899788 C-0.149941002,68.9964229 -0.157438052,74.5051482 0.451965019,79.9555037 C0.677947529,81.9872042 3.10859827,83.4941113 5.17082254,83.4941113 C11.4372854,83.3339957 17.4536681,87.2137191 19.9774965,93.3554097 C22.4932923,99.4890677 20.8760715,106.63804 15.9537226,111.150194 C14.4141498,112.564459 14.218691,114.928171 15.5162162,116.572703 C18.8599005,120.831563 22.6967836,124.707002 26.9004867,128.090314 C28.5493022,129.418898 30.9483583,129.231472 32.3776173,127.656556 C36.6830661,122.894323 44.387356,121.13198 50.3175227,123.621001 C56.5288287,126.219264 60.4358628,132.496973 60.0535132,139.240034 C59.9287409,141.35795 61.4833078,143.201689 63.5851593,143.443737 C66.3349702,143.764503 69.1013816,143.924619 71.8752902,143.924619 C74.5083613,143.924619 77.1419679,143.780033 79.775039,143.487113 C81.8618964,143.256846 83.4078952,141.459696 83.3377443,139.365877 C83.0962321,132.696716 87.0573521,126.52825 93.183513,124.019951 C99.1056471,121.601081 106.724256,123.371456 111.005608,128.074784 C112.428441,129.622389 114.779301,129.80928 116.436685,128.528891 C120.741598,125.153077 124.656129,121.281386 128.078533,117.018777 C129.406582,115.369962 129.219155,112.970906 127.648523,111.549679 C122.639958,107.013964 121.014705,99.7975177 123.616717,93.5974573 C126.062897,87.7610038 131.976999,83.8421886 138.338246,83.8421886 L139.228253,83.8652153 C141.291548,84.0328279 143.189908,82.4434533 143.439988,80.3373177 C144.074025,74.9260541 144.081522,69.4221483 143.472118,63.9717929 Z M72.076104,96.1180726 C58.8395266,96.1180726 48.0726917,85.3512377 48.0726917,72.1146603 C48.0726917,58.8786184 58.8395266,48.1112479 72.076104,48.1112479 C85.3121459,48.1112479 96.0789809,58.8786184 96.0789809,72.1146603 C96.0789809,85.3512377 85.3121459,96.1180726 72.076104,96.1180726 Z" id="Shape"></path>
            </g>
            <text id="Bootstrap.build" font-family="AvenirNext-Medium, Avenir Next" font-size="154" font-weight="400" fill="#000000">
                <tspan x="328.214" y="178">Bootstrap.build</tspan>
            </text>
        </g>
    </g>
</svg>