<?xml version="1.0" encoding="UTF-8"?>
<svg width="3426px" height="817px" viewBox="0 0 3426 817" version="1.1" xmlns="http://www.w3.org/2000/svg" xmlns:xlink="http://www.w3.org/1999/xlink">
    <!-- Generator: Sketch 43.1 (39012) - http://www.bohemiancoding.com/sketch -->
    <title>Group 2</title>
    <desc>Created with Sketch.</desc>
    <defs>
        <linearGradient x1="83.4972749%" y1="0%" x2="9.48787907%" y2="82.3250395%" id="linearGradient-1">
            <stop stop-color="#4FB4FF" offset="0%"></stop>
            <stop stop-color="#A7D9FF" offset="100%"></stop>
        </linearGradient>
        <path d="M306.279017,141.882238 C331.496854,120.348788 372.383722,120.349365 397.600883,141.882238 L684.966776,387.263285 C710.184613,408.796735 710.183937,443.709933 684.966776,465.242806 L397.600883,710.623853 C372.383046,732.157303 331.496178,732.156726 306.279017,710.623853 L18.9131242,465.242806 C-6.30471256,443.709356 -6.30403691,408.796158 18.9131242,387.263285 L306.279017,141.882238 Z" id="path-2"></path>
        <filter x="-10.0%" y="-11.7%" width="120.0%" height="123.5%" filterUnits="objectBoundingBox" id="filter-3">
            <feOffset dx="0" dy="0" in="SourceAlpha" result="shadowOffsetOuter1"></feOffset>
            <feGaussianBlur stdDeviation="23.5" in="shadowOffsetOuter1" result="shadowBlurOuter1"></feGaussianBlur>
            <feColorMatrix values="0 0 0 0 0   0 0 0 0 0.200494599   0 0 0 0 0.346699617  0 0 0 0.5 0" type="matrix" in="shadowBlurOuter1"></feColorMatrix>
        </filter>
        <path d="M306.279017,82.1769245 C331.496854,60.6434742 372.383722,60.6440512 397.600883,82.1769245 L684.966776,327.557971 C710.184613,349.091421 710.183937,384.004619 684.966776,405.537492 L397.600883,650.918539 C372.383046,672.451989 331.496178,672.451412 306.279017,650.918539 L18.9131242,405.537492 C-6.30471256,384.004042 -6.30403691,349.090844 18.9131242,327.557971 L306.279017,82.1769245 Z" id="path-4"></path>
        <filter x="-10.0%" y="-11.7%" width="120.0%" height="123.5%" filterUnits="objectBoundingBox" id="filter-5">
            <feOffset dx="0" dy="0" in="SourceAlpha" result="shadowOffsetOuter1"></feOffset>
            <feGaussianBlur stdDeviation="23.5" in="shadowOffsetOuter1" result="shadowBlurOuter1"></feGaussianBlur>
            <feColorMatrix values="0 0 0 0 0   0 0 0 0 0.200494599   0 0 0 0 0.346699617  0 0 0 0.5 0" type="matrix" in="shadowBlurOuter1"></feColorMatrix>
        </filter>
        <path d="M306.279017,16.1498714 C331.496854,-5.38357892 372.383722,-5.38300198 397.600883,16.1498714 L684.966776,261.530918 C710.184613,283.064368 710.183937,317.977566 684.966776,339.510439 L397.600883,584.891485 C372.383046,606.424936 331.496178,606.424359 306.279017,584.891485 L18.9131242,339.510439 C-6.30471256,317.976989 -6.30403691,283.063791 18.9131242,261.530918 L306.279017,16.1498714 Z" id="path-6"></path>
        <filter x="-10.0%" y="-11.7%" width="120.0%" height="123.5%" filterUnits="objectBoundingBox" id="filter-7">
            <feOffset dx="0" dy="0" in="SourceAlpha" result="shadowOffsetOuter1"></feOffset>
            <feGaussianBlur stdDeviation="23.5" in="shadowOffsetOuter1" result="shadowBlurOuter1"></feGaussianBlur>
            <feColorMatrix values="0 0 0 0 0   0 0 0 0 0.200494599   0 0 0 0 0.346699617  0 0 0 0.5 0" type="matrix" in="shadowBlurOuter1"></feColorMatrix>
        </filter>
        <filter x="-13.0%" y="-13.6%" width="125.7%" height="127.2%" filterUnits="objectBoundingBox" id="filter-8">
            <feOffset dx="0" dy="0" in="SourceAlpha" result="shadowOffsetOuter1"></feOffset>
            <feGaussianBlur stdDeviation="12.5" in="shadowOffsetOuter1" result="shadowBlurOuter1"></feGaussianBlur>
            <feColorMatrix values="0 0 0 0 0.531648597   0 0 0 0 0.531648597   0 0 0 0 0.531648597  0 0 0 0.5 0" type="matrix" in="shadowBlurOuter1" result="shadowMatrixOuter1"></feColorMatrix>
            <feMerge>
                <feMergeNode in="shadowMatrixOuter1"></feMergeNode>
                <feMergeNode in="SourceGraphic"></feMergeNode>
            </feMerge>
        </filter>
    </defs>
    <g id="Page-1" stroke="none" stroke-width="1" fill="none" fill-rule="evenodd">
        <g id="Group-2" transform="translate(41.000000, 45.000000)">
            <g id="Group-4" transform="translate(4.000000, 0.000000)">
                <g id="Group-3">
                    <g id="Rectangle-2">
                        <use fill="black" fill-opacity="1" filter="url(#filter-3)" xlink:href="#path-2"></use>
                        <use fill="url(#linearGradient-1)" fill-rule="evenodd" xlink:href="#path-2"></use>
                    </g>
                    <g id="Rectangle-2">
                        <use fill="black" fill-opacity="1" filter="url(#filter-5)" xlink:href="#path-4"></use>
                        <use fill="url(#linearGradient-1)" fill-rule="evenodd" xlink:href="#path-4"></use>
                    </g>
                    <g id="Rectangle-2">
                        <use fill="black" fill-opacity="1" filter="url(#filter-7)" xlink:href="#path-6"></use>
                        <use fill="url(#linearGradient-1)" fill-rule="evenodd" xlink:href="#path-6"></use>
                    </g>
                </g>
                <g id="cog" filter="url(#filter-8)" transform="translate(351.582098, 298.122673) rotate(-6.000000) translate(-351.582098, -298.122673) translate(203.582098, 160.122673)" fill-rule="nonzero" fill="#FFFFFF">
                    <path d="M196.998338,137.67343 C196.998338,125.005562 192.188809,114.190071 182.569749,105.226958 C172.95069,96.2638436 161.343691,91.7822866 147.748754,91.7822866 C134.153816,91.7822866 122.546818,96.2638436 112.927758,105.226958 C103.308699,114.190071 98.4991692,125.005562 98.4991692,137.67343 C98.4991692,150.341298 103.308699,161.156788 112.927758,170.119902 C122.546818,179.083016 134.153816,183.564573 147.748754,183.564573 C161.343691,183.564573 172.95069,179.083016 182.569749,170.119902 C192.188809,161.156788 196.998338,150.341298 196.998338,137.67343 Z M295.497507,118.133842 L295.497507,157.930067 C295.497507,159.364166 294.984491,160.73851 293.958458,162.0531 C292.932425,163.36769 291.649884,164.144493 290.110834,164.383509 L254.520314,169.402853 C252.083486,175.856295 249.58253,181.293918 247.017448,185.715721 C251.506342,191.69113 258.367938,199.937195 267.602235,210.453915 C268.884776,211.888013 269.526047,213.381866 269.526047,214.935472 C269.526047,216.489078 268.948903,217.863423 267.794616,219.058504 C264.331755,223.480307 257.983175,229.933749 248.748878,238.418831 C239.514581,246.903912 233.486637,251.146452 230.665047,251.146452 C229.125997,251.146452 227.458693,250.608665 225.663136,249.533092 L199.114531,230.172766 C193.47135,232.921454 187.635787,235.19211 181.607843,236.984732 C179.555777,253.237846 177.696092,264.352107 176.028789,270.327516 C175.13101,273.673745 172.822435,275.34686 169.103066,275.34686 L126.394442,275.34686 C124.598884,275.34686 123.027771,274.83895 121.681103,273.823131 C120.334434,272.807311 119.596973,271.522598 119.468719,269.968992 L114.082046,236.984732 C107.797593,235.072601 102.026158,232.8617 96.7677385,230.352028 L69.6419907,249.533092 C68.3594494,250.608665 66.7562728,251.146452 64.832461,251.146452 C63.0369032,251.146452 61.4337266,250.489157 60.0229312,249.174567 C43.8629113,235.550634 33.2819458,225.511946 28.2800349,219.058504 C27.382256,217.863423 26.9333666,216.489078 26.9333666,214.935472 C26.9333666,213.501374 27.4463831,212.12703 28.4724161,210.81244 C30.396228,208.302768 33.6667082,204.329121 38.2838568,198.891498 C42.9010053,193.453876 46.3638667,189.241212 48.672441,186.253507 C45.2095796,180.278098 42.58037,174.362443 40.7848122,168.506542 L5.5790545,163.66646 C3.91175086,163.427444 2.56508253,162.680518 1.53904952,161.425682 C0.513016506,160.170846 -1.42108547e-13,158.766625 -1.42108547e-13,157.213018 L-1.42108547e-13,117.416792 C-1.42108547e-13,115.982694 0.513016506,114.60835 1.53904952,113.29376 C2.56508253,111.97917 3.78349673,111.202367 5.19429212,110.96335 L40.9771934,105.944007 C42.7727512,100.44663 45.2737067,94.9492536 48.4800598,89.451877 C43.3498948,82.6399104 36.488299,74.3938456 27.8952725,64.7136826 C26.6127313,63.2795843 25.9714606,61.8454861 25.9714606,60.4113879 C25.9714606,59.216306 26.5486042,57.8419619 27.7028913,56.2883555 C31.0374986,51.9860608 37.3540143,45.5624958 46.6524385,37.0176605 C55.9508627,28.4728252 62.0108702,24.2004076 64.832461,24.2004076 C66.4997646,24.2004076 68.1670682,24.7979485 69.8343719,25.9930304 L96.3829761,45.1740942 C102.026158,42.4254059 107.86172,40.1547504 113.889664,38.3621276 C115.94173,22.1090144 117.801415,10.9947531 119.468719,5.0193438 C120.366498,1.6731146 122.675072,5.68434189e-14 126.394442,5.68434189e-14 L169.103066,5.68434189e-14 C170.898624,5.68434189e-14 172.469737,0.507909789 173.816405,1.52372937 C175.163073,2.53954895 175.900535,3.82426194 176.028789,5.37786836 L181.415462,38.3621276 C187.699914,40.2742586 193.47135,42.48516 198.729769,44.9948319 L226.047898,25.8137681 C227.202185,24.7381944 228.741235,24.2004076 230.665047,24.2004076 C232.33235,24.2004076 233.935527,24.7979485 235.474576,25.9930304 C252.019359,40.2145045 262.600324,50.3727003 267.217473,56.4676178 C268.115251,57.4236832 268.564141,58.7382733 268.564141,60.4113879 C268.564141,61.8454861 268.051124,63.2198302 267.025091,64.5344203 C265.101279,67.0440922 261.830799,71.0177394 257.213651,76.4553618 C252.596502,81.8929843 249.133641,86.1056478 246.825066,89.0933525 C250.159674,95.0687617 252.788883,100.924663 254.712695,106.661056 L289.918453,111.6804 C291.585757,111.919416 292.932425,112.666342 293.958458,113.921178 C294.984491,115.176014 295.497507,116.580235 295.497507,118.133842 Z" id="Shape"></path>
                </g>
            </g>
            <text id="bootstrap-.build" font-family="Consolas-Bold, Consolas" font-size="500" font-weight="bold" fill="#272727">
                <tspan x="923.878906" y="488">bootstrap</tspan>
                <tspan x="2738.23438" y="988" font-size="200">.build</tspan>
            </text>
        </g>
    </g>
</svg>