<?xml version="1.0" encoding="UTF-8"?>
<svg width="1390px" height="241px" viewBox="0 0 1390 241" version="1.1" xmlns="http://www.w3.org/2000/svg" xmlns:xlink="http://www.w3.org/1999/xlink">
    <!-- Generator: Sketch 43.1 (39012) - http://www.bohemiancoding.com/sketch -->
    <title>Group 8</title>
    <desc>Created with Sketch.</desc>
    <defs>
        <linearGradient x1="50%" y1="0%" x2="50%" y2="100%" id="linearGradient-1">
            <stop stop-color="#5CC8FF" offset="0%"></stop>
            <stop stop-color="#2675C3" offset="100%"></stop>
        </linearGradient>
    </defs>
    <g id="Page-1" stroke="none" stroke-width="1" fill="none" fill-rule="evenodd">
        <g id="Group-8">
            <g id="Group-6" transform="translate(307.000000, 31.000000)" font-size="154" font-family="AvenirNext-Medium, Avenir Next" fill="#000000" font-weight="400">
                <text id="Bootstrap.build">
                    <tspan x="0.214" y="154">Bootstrap.build</tspan>
                </text>
            </g>
            <g id="Group-7">
                <circle id="Oval-2" fill="url(#linearGradient-1)" cx="120.5" cy="120.5" r="120.5"></circle>
                <g id="settings-work-tool" transform="translate(50.776730, 50.776730)" fill-rule="nonzero" fill="#FFFFFF">
                    <path d="M139.184392,62.0605127 C138.963603,60.0978219 136.675182,58.6229465 134.696387,58.6229465 C128.29868,58.6229465 122.621527,54.8664042 120.240634,49.0567772 C117.808311,43.1063642 119.376697,36.1668133 124.144716,31.7930988 C125.645566,30.4210855 125.827913,28.1243528 124.569152,26.5289523 C121.29471,22.3708324 117.572975,18.6148095 113.509405,15.3595898 C111.91816,14.0826459 109.583504,14.2603167 108.203698,15.7881816 C104.042461,20.3967125 96.5678196,22.1095212 90.7919604,19.6995365 C84.7812848,17.1711045 80.9909747,11.0804251 81.3619014,4.54245179 C81.4839851,2.4888476 79.9831345,0.703308116 77.9357644,0.464855214 C72.7209709,-0.138290362 67.4604609,-0.15699255 62.2300822,0.423294795 C60.2060898,0.646682045 58.7052392,2.39014161 58.7732944,4.41777053 C59.0008377,10.8913252 55.164811,16.875506 49.2138786,19.3130246 C43.5071136,21.6440446 36.0849423,19.9457819 31.9320175,15.3782919 C30.5594847,13.8738048 28.262752,13.6888609 26.6637149,14.935154 C22.4796198,18.2179075 18.6742439,21.9770474 15.3696712,26.1008799 C14.0807787,27.7040731 14.2703981,30.02782 15.7863143,31.4071064 C20.6452468,35.8073157 22.2141526,42.8071292 19.6898767,48.8261169 C17.2798919,54.5645717 11.3211669,58.2629294 4.49954365,58.2629294 C2.28593186,58.1917572 0.709233474,59.6775422 0.467144036,61.6901054 C-0.14691115,66.9350303 -0.154184223,72.2791806 0.437012732,77.5667049 C0.656243941,79.5377077 3.01427819,80.9995955 5.01489285,80.9995955 C11.0941431,80.8442634 16.9307844,84.6080788 19.3792125,90.5662843 C21.8198481,96.5166973 20.2509423,103.452092 15.4756502,107.829443 C13.9820727,109.201457 13.7924533,111.494553 15.0512144,113.089953 C18.2950051,117.221578 22.0172601,120.981238 26.0953762,124.263472 C27.6949328,125.552364 30.0223162,125.370537 31.4088757,123.842673 C35.5856978,119.222712 43.0598196,117.513021 48.8128205,119.927681 C54.8385617,122.44832 58.6288719,128.53848 58.2579452,135.08009 C58.1369005,137.134733 59.6450241,138.92339 61.6840822,139.158206 C64.3517416,139.46939 67.0355056,139.624722 69.7265427,139.624722 C72.2809499,139.624722 74.8358767,139.484456 77.3902839,139.200286 C79.4147958,138.976899 80.9146074,137.233439 80.8465522,135.202174 C80.6122553,128.732256 84.4550356,122.748075 90.3981754,120.314712 C96.1433838,117.968107 103.534385,119.685592 107.687829,124.248406 C109.068154,125.749776 111.348782,125.931084 112.956651,124.688947 C117.132954,121.413986 120.930537,117.657963 124.250695,113.522701 C125.539068,111.923144 125.357241,109.595761 123.833532,108.216994 C118.9746,103.816785 117.397901,96.8159323 119.922177,90.8011007 C122.295277,85.1390131 128.032693,81.3372739 134.203896,81.3372739 L135.067313,81.3596126 C137.068967,81.5222177 138.910613,79.9803262 139.153222,77.9371121 C139.768316,72.6875117 139.775589,67.3480369 139.184392,62.0605127 Z M69.9213572,93.2464118 C57.0802268,93.2464118 46.6350546,82.8012396 46.6350546,69.9601093 C46.6350546,57.1194984 57.0802268,46.6738067 69.9213572,46.6738067 C82.761968,46.6738067 93.2071402,57.1194984 93.2071402,69.9601093 C93.2071402,82.8012396 82.761968,93.2464118 69.9213572,93.2464118 Z" id="Shape"></path>
                </g>
            </g>
        </g>
    </g>
</svg>